<svg xmlns="http://www.w3.org/2000/svg" viewBox="0 0 100 100">
  <!-- Circle background -->
  <circle cx="50" cy="50" r="48" fill="#21759b" />
  
  <!-- Stylized W -->
  <path d="M50,10 C27.9,10 10,27.9 10,50 C10,72.1 27.9,90 50,90 C72.1,90 90,72.1 90,50 C90,27.9 72.1,10 50,10 Z M15,50 C15,35.1 24.3,22.3 37.4,16.8 L17.2,58.6 C15.8,55.9 15,53 15,50 Z M50,85 C45.9,85 42,84.2 38.4,82.9 L49.8,50.7 L61.5,81.8 C61.5,81.8 61.6,82 61.6,82.1 C58,83.9 54.1,85 50,85 Z M55.6,30.1 C57.6,30 59.5,29.7 59.5,29.7 C61.3,29.4 61,26.8 59.2,27 C59.2,27 54.4,27.6 51.1,27.6 C48.1,27.6 43.2,27 43.2,27 C41.4,26.8 41.1,29.5 42.9,29.7 C42.9,29.7 44.6,30 46.3,30.1 L51.8,44.2 L44.7,65.3 L31.9,30.1 C33.9,30 35.8,29.7 35.8,29.7 C37.6,29.4 37.3,26.8 35.5,27 C35.5,27 30.7,27.6 27.4,27.6 C26.8,27.6 26.2,27.6 25.5,27.5 C32.5,19.5 40.9,15 50,15 C56.8,15 63.1,17.3 68.3,21.3 C68.2,21.3 68.1,21.3 68,21.3 C65,21.3 62.9,24 62.9,26.9 C62.9,29.5 64.3,31.6 65.8,34.1 C66.9,36.1 68.3,38.7 68.3,42.4 C68.3,44.8 67.6,47.7 66.2,51.5 L62.2,63.6 L55.6,30.1 Z M72.5,48.5 C72.5,51.8 71.8,55.4 70.5,58.6 L57.5,84.9 C67.8,79.7 75,65.9 75,50 C75,49.5 75,49 74.9,48.5 L72.5,48.5 Z" fill="white" />
</svg>